<svg xmlns="http://www.w3.org/2000/svg" width="24" height="12" viewBox="0 0 24 12">
    <g fill="none" fill-rule="evenodd">
        <g fill="#3C3C3C" fill-rule="nonzero">
            <path d="M281.263 43.71c-.697 0-1.263.577-1.263 1.29 0 .713.566 1.29 1.263 1.29h21.474c.697 0 1.263-.577 1.263-1.29 0-.713-.566-1.29-1.263-1.29h-21.474zm0 8.71c-.697 0-1.263.577-1.263 1.29 0 .712.566 1.29 1.263 1.29h21.474c.697 0 1.263-.578 1.263-1.29 0-.713-.566-1.29-1.263-1.29h-21.474z" transform="translate(-280 -43)"/>
        </g>
    </g>
</svg>
