<svg xmlns="http://www.w3.org/2000/svg" width="18" height="20" viewBox="0 0 18 20">
    <g fill="none" fill-rule="evenodd">
        <g fill="#3C3C3C" fill-rule="nonzero">
            <g>
                <path d="M15.68.786C16.173.293 16.98.3 17.485.805s.513 1.312.02 1.806l-6.68 6.68 6.68 6.679c.46.46.483 1.195.074 1.7l-.094.106c-.504.504-1.312.512-1.805.019L9 11.115l-6.68 6.68c-.46.46-1.195.483-1.7.075l-.105-.094c-.504-.504-.513-1.313-.02-1.806l6.68-6.68-6.68-6.68C.036 2.15.013 1.416.422.91L.515.805C1.019.301 1.827.293 2.32.785L9 7.466z" transform="translate(-283 -39) translate(283 39.71)"/>
            </g>
        </g>
    </g>
</svg>
